HIERARCHY
ROOT root
{
	OFFSET	0	13.1	24.9
	CHANNELS 6  Xposition Yposition Zposition Xrotation Yrotation Zrotation
	JOINT spine_1
	{
		OFFSET	0	9.99999	0
		CHANNELS 3  Xrotation Yrotation Zrotation
		JOINT spine_2
		{
			OFFSET	0	112	-10
			CHANNELS 3  Xrotation Yrotation Zrotation
			JOINT spine_3
			{
				OFFSET	0	206.5	19.3
				CHANNELS 3  Xrotation Yrotation Zrotation
				JOINT spine_4
				{
					OFFSET	0	110.4	14.6
					CHANNELS 3  Xrotation Yrotation Zrotation
					JOINT neck_1
					{
						OFFSET	0	71.8	-50.3
						CHANNELS 3  Xrotation Yrotation Zrotation
						JOINT neck_2
						{
							OFFSET	0	86.2	-25.8
							CHANNELS 3  Xrotation Yrotation Zrotation
							JOINT head_ee
							{
								OFFSET	0	179.8	-8.7
								CHANNELS 3  Xrotation Yrotation Zrotation
								End Site
								{
									OFFSET	1	0	0
								}
							}
						}
					}
					JOINT left_clavicle
					{
						OFFSET	-43.2	22.4	-70.8
						CHANNELS 3  Xrotation Yrotation Zrotation
						JOINT left_shoulder
						{
							OFFSET	-93.9	-5.79999	48.7
							CHANNELS 3  Xrotation Yrotation Zrotation
							JOINT left_elbow
							{
								OFFSET	-291.4	-30.8	15.2
								CHANNELS 3  Xrotation Yrotation Zrotation
								JOINT left_lowarm_twist
								{
									OFFSET	-110.7	-3.89999	13.6
									CHANNELS 3  Xrotation Yrotation Zrotation
									JOINT left_hand
									{
										OFFSET	-110.7	-3.89999	13.6
										CHANNELS 3  Xrotation Yrotation Zrotation
										JOINT left_ee
										{
											OFFSET	-80.8	-5.10001	12.1
											CHANNELS 3  Xrotation Yrotation Zrotation
											End Site
											{
												OFFSET	1	0	0
											}
										}
									}
								}
							}
						}
					}
					JOINT right_clavicle
					{
						OFFSET	43.2	22.4	-70.8
						CHANNELS 3  Xrotation Yrotation Zrotation
						JOINT right_shoulder
						{
							OFFSET	93.9	-5.79999	48.7
							CHANNELS 3  Xrotation Yrotation Zrotation
							JOINT right_elbow
							{
								OFFSET	291.4	-30.8	15.2
								CHANNELS 3  Xrotation Yrotation Zrotation
								JOINT right_lowarm_twist
								{
									OFFSET	110.7	-3.89999	13.6
									CHANNELS 3  Xrotation Yrotation Zrotation
									JOINT right_hand
									{
										OFFSET	110.7	-3.89999	13.6
										CHANNELS 3  Xrotation Yrotation Zrotation
										JOINT right_ee
										{
											OFFSET	80.8	-5.10001	12.1
											CHANNELS 3  Xrotation Yrotation Zrotation
											End Site
											{
												OFFSET	1	0	0
											}
										}
									}
								}
							}
						}
					}
				}
			}
		}
	}
	JOINT left_hip
	{
		OFFSET	-82.8	-127.5	0.300001
		CHANNELS 3  Xrotation Yrotation Zrotation
		JOINT left_knee
		{
			OFFSET	-28.2	-396.7	2.2
			CHANNELS 3  Xrotation Yrotation Zrotation
			JOINT left_ankle
			{
				OFFSET	-11.7	-411.3	35.4
				CHANNELS 3  Xrotation Yrotation Zrotation
				JOINT left_toes
				{
					OFFSET	0	-60	-88.6
					CHANNELS 3  Xrotation Yrotation Zrotation
					JOINT left_foot_ee
					{
						OFFSET	-22.5	-16.5	-42.2
						CHANNELS 3  Xrotation Yrotation Zrotation
						End Site
						{
							OFFSET	1	0	0
						}
					}
				}
			}
		}
	}
	JOINT right_hip
	{
		OFFSET	82.8	-127.5	0.300001
		CHANNELS 3  Xrotation Yrotation Zrotation
		JOINT right_knee
		{
			OFFSET	28.2	-396.7	2.2
			CHANNELS 3  Xrotation Yrotation Zrotation
			JOINT right_ankle
			{
				OFFSET	11.7	-411.3	35.4
				CHANNELS 3  Xrotation Yrotation Zrotation
				JOINT right_toes
				{
					OFFSET	0	-60	-88.6
					CHANNELS 3  Xrotation Yrotation Zrotation
					JOINT right_foot_ee
					{
						OFFSET	22.5	-16.5	-42.2
						CHANNELS 3  Xrotation Yrotation Zrotation
						End Site
						{
							OFFSET	1	0	0
						}
					}
				}
			}
		}
	}
}
MOTION
Frames: 5
Frame Time: 0.02
2750.23907698 730.157 -1551.74998927 66.8837119836 79.4356980598 -67.9922540498 -1.58573 0.179788 0.344986 -1.58568 0.157471 0.355727 -1.58461 0.0686279 0.382921 -1.5848 0.128242 0.367278 -13.2015 9.17556 -2.75305 -13.4325 19.1748 0.194066 -0.0 0.0 -0.0 4.74744 10.5047 9.40395 -4.1784 -22.769 57.7742 2.2494 -48.0876 1.00366 12.8012 0.272264 -1.60919 -2.5917 27.6595 -3.32729 -0.0 0.0 -0.0 7.35636 15.0138 -13.9014 -28.0075 17.155 -59.4431 0.715205 19.5088 -0.122953 -8.8722 0.395741 -1.06186 1.67721 14.09 -5.28914 0.0 0.0 0.0 -9.83498 0.705028 6.38647 -7.82472 0.242204 1.1755 17.638 28.2105 -2.60436 27.3283 -0.0 -0.0 -0.0 0.0 -0.0 12.9278 24.8454 -2.56026 -63.4303 2.58156 -8.89219 17.0037 -24.5273 2.46178 1.63287 -0.0 -0.0 0.0 0.0 0.0 
2743.68016352 727.466 -1543.6943765 63.461817706 79.9040883738 -63.6714115071 -1.48907 0.172871 0.0414537 -1.48908 0.169883 0.0523699 -1.48893 0.152771 0.0909055 -1.48891 0.16521 0.0656373 -13.4706 9.2653 -2.14757 -13.7164 18.974 0.846133 -0.0 0.0 -0.0 4.9027 10.2422 9.67284 -2.90085 -23.161 57.0892 2.3696 -49.5646 1.09414 12.8829 0.272839 -1.6196 -2.64535 27.0383 -3.94928 -0.0 0.0 -0.0 7.29806 14.9682 -13.7779 -28.08 17.2851 -59.7906 0.641578 17.6313 -0.0995021 -9.08118 0.407029 -1.08609 1.64191 14.0053 -5.08871 0.0 0.0 0.0 -11.6293 0.307737 5.45 -7.05037 0.225425 1.05786 18.0791 27.7344 -2.65668 27.4731 -0.0 -0.0 -0.0 0.0 -0.0 14.8727 24.6947 -2.49205 -62.3113 2.45467 -8.77505 17.1263 -24.4864 2.47781 1.45951 -0.0 -0.0 0.0 0.0 0.0 
2731.27991861 725.536 -1531.52426308 67.6857920216 79.3070773369 -67.5357713482 -1.46973 0.138002 -0.0987374 -1.46974 0.144005 -0.0897558 -1.46998 0.161075 -0.0533697 -1.46995 0.150625 -0.0781388 -13.6623 9.3317 -1.68763 -13.9171 18.8213 1.33751 -0.0 0.0 -0.0 4.87872 10.0071 9.62966 -1.58255 -23.4692 55.9666 2.47332 -50.7712 1.1738 12.9121 0.273041 -1.62333 -2.68425 26.5555 -4.42073 -0.0 0.0 -0.0 7.22701 14.9393 -13.6261 -28.1724 17.3141 -59.9995 0.579168 16.0085 -0.0814413 -9.21723 0.414426 -1.10185 1.6157 13.9023 -4.95771 0.0 0.0 0.0 -12.8499 -0.0151526 4.79114 -6.47584 0.21195 0.970724 18.3529 27.3625 -2.68764 27.5595 -0.0 -0.0 -0.0 0.0 -0.0 17.2673 24.4909 -3.06527 -60.9232 2.3005 -8.62637 17.2491 -24.4421 2.49381 1.33617 -0.0 -0.0 0.0 0.0 0.0 
2718.0022884 723.265 -1523.7597601 74.6096522349 80.0864462305 -74.2057861307 -1.37051 0.0576228 -0.147167 -1.3705 0.0668706 -0.143202 -1.37067 0.0984602 -0.123629 -1.37068 0.0776997 -0.137627 -13.8245 9.38447 -1.33813 -14.0857 18.7121 1.71387 -0.0 0.0 -0.0 4.92444 9.71604 9.70819 -0.0363321 -23.8862 55.0393 2.58648 -52.0201 1.26224 12.9054 0.272996 -1.62248 -2.70945 26.1513 -4.77663 -0.0 0.0 -0.0 7.05078 14.8846 -13.2488 -28.5351 17.1728 -60.1345 0.529787 14.7053 -0.0683627 -9.29969 0.418927 -1.11139 1.59521 13.7972 -4.86612 0.0 0.0 0.0 -14.3904 -0.272693 4.90957 -6.08577 0.202303 0.91164 18.6428 26.9995 -2.72077 27.6418 -0.0 -0.0 -0.0 0.0 -0.0 20.2056 24.0678 -4.24713 -59.2382 2.11829 -8.44098 17.3597 -24.4125 2.50834 1.25125 -0.0 -0.0 0.0 0.0 0.0 
2709.3454568 724.358 -1520.761578 75.97501406 80.8941895563 -75.3324986925 -1.2523 -0.0563704 -0.350567 -1.25223 -0.0339488 -0.353443 -1.25196 0.0487913 -0.351702 -1.25214 -0.00736538 -0.354994 -13.9915 9.4414 -1.03413 -14.2595 18.6404 2.04895 -0.0 0.0 -0.0 5.04718 9.38719 9.92296 1.94863 -24.41 54.2987 2.71759 -53.3846 1.36654 12.8951 0.272924 -1.62116 -2.72787 25.7807 -5.07791 -0.0 0.0 -0.0 6.91428 14.7503 -12.9627 -29.1537 16.9706 -60.3046 0.488735 13.6099 -0.0583213 -9.38117 0.423388 -1.12081 1.57962 13.6722 -4.81638 0.0 0.0 0.0 -15.4858 -0.452498 5.0088 -5.5984 0.189683 0.837911 18.9828 26.6711 -2.76105 27.7118 -0.0 -0.0 -0.0 0.0 -0.0 22.7206 23.6961 -5.13665 -57.181 1.9034 -8.2076 17.516 -24.3494 2.52853 1.21901 -0.0 -0.0 0.0 0.0 0.0 
